<svg xmlns="http://www.w3.org/2000/svg" version="1.1" xmlns:xlink="http://www.w3.org/1999/xlink" xmlns:svgjs="http://svgjs.dev/svgjs" width="100%" height="100%" viewBox="0 0 1000 600"><rect width="1000" height="600" x="0" y="0" fill="#ffffff"/><g><rect width="333.3333333333333" height="333.3333333333333" rx="13.333333333333334" ry="13.333333333333334" y="197.23632369641962" fill="#3c1a5b" transform="matrix(0.7142281714886949,0,0,0.7142281714886949,0,40.09023277564967)" x="175.01409912109375"/><path d="M294.6385813517884 438.9030003457684L254.64372517542586 438.9030003457684L254.64372517542586 288.9029995608513L289.0830257671618 288.9029995608513Q299.2682110056438 288.9029995608513 306.75277894604346 291.11493372880443Q314.2630670511868 293.35258806150125 319.2527790114533 297.98221771535674Q324.2682111364634 302.61184736921217 326.660186457622 309.7363330032009Q329.0778819435243 316.8608186371896 329.0778819435243 326.5058804160551L329.0778819435243 326.5058804160551Q329.0778819435243 335.7651397237661 326.7630671165966 342.5038228866001Q324.44825228966886 349.26822621417784 319.7157419768388 353.15197109046767Q315.0089518287524 357.0614361315012 307.6015443825837 358.1674032154778L307.6015443825837 358.1674032154778Q316.6807625370891 360.19929623022546 322.2363181217157 365.111847696261Q327.79187370634224 370.0243991622965 330.466770839681 377.6890082559017Q333.1416679730197 385.3793375142505 333.1416679730197 396.1303663770926L333.1416679730197 396.1303663770926Q333.1416679730197 405.74970799121456 330.9297338050665 413.7229590617434Q328.71779963711333 421.6704899675286 323.9852893242833 427.2260455521552Q319.2527790114533 432.7816011367818 311.9482522242591 435.8423007412751Q304.6437254370649 438.9030003457684 294.6385813517884 438.9030003457684L294.6385813517884 438.9030003457684ZM275.5542191120064 367.4266625231887L275.5542191120064 423.90814430022544L289.6231492267783 423.90814430022544Q303.7177995062938 423.90814430022544 308.42458965438016 417.3237821258532Q313.15709996721023 410.76514011622464 313.15709996721023 396.1303663770926L313.15709996721023 396.1303663770926Q313.15709996721023 386.69106591617617 310.662243987077 380.28674489500946Q308.14166784220015 373.9081440385864 302.68899291654816 370.6674032808876Q297.23631799089617 367.4266625231887 287.9770586831852 367.4266625231887L287.9770586831852 367.4266625231887L275.5542191120064 367.4266625231887ZM275.5542191120064 304.4636992307544L275.5542191120064 351.50588054687466L287.9770586831852 351.50588054687466Q296.8505155197415 351.50588054687466 301.8659476447516 348.9853044019978Q306.8556596050181 346.4904484218646 308.88755261976576 340.934892837238Q310.9194456345134 335.37933725261144 310.9194456345134 326.5058804160551L310.9194456345134 326.5058804160551Q310.9194456345134 316.114933859624 307.7815855357892 311.4853042057685Q304.6437254370649 306.855674551913 297.9564826037181 305.67254697370555Q291.294959935115 304.4636992307544 280.5696512370165 304.4636992307544L280.5696512370165 304.4636992307544L275.5542191120064 304.4636992307544ZM372.5964006897657 438.9030003457684L351.66018658844155 438.9030003457684L351.66018658844155 288.9029995608513L381.85565999747666 288.9029995608513Q396.85051604301964 288.9029995608513 406.6756189750907 292.8896250961157Q416.47500174241804 296.8762506313801 421.2075120552481 305.67254697370555Q425.94002236807813 314.4688433160309 425.94002236807813 328.7178145840083L425.94002236807813 328.7178145840083Q425.94002236807813 337.41123026735914 424.088170506536 344.56143606609146Q422.2363186449938 351.68592170008014 418.14681245075474 356.5984731661157Q414.08302642125943 361.48530446740756 407.4215037526563 363.7229588001044L407.4215037526563 363.7229588001044L428.71780016039145 438.9030003457684L408.5274708366329 438.9030003457684L388.9029851372344 368.5326296071653L372.5964006897657 368.5326296071653L372.5964006897657 438.9030003457684ZM372.5964006897657 303.8978556063943L372.5964006897657 353.5377735616223L380.56965176029456 353.5377735616223Q389.4431085968509 353.5377735616223 394.99866418147747 351.3001192289255Q400.554219766104 349.08818506097236 403.1519564052118 343.71267062955127Q405.74969304431954 338.33715619813023 405.74969304431954 328.7178145840083L405.74969304431954 328.7178145840083Q405.74969304431954 315.5748104000075 400.94002223725863 309.7363330032009Q396.10463126545403 303.8978556063943 381.85565999747666 303.8978556063943L381.85565999747666 303.8978556063943L372.5964006897657 303.8978556063943Z " fill="#ffffff" transform="matrix(0.7142281714886949,0,0,0.7142281714886949,0,40.09023277564967)"/><path d="M625.5341758612849 416.02200926418715L591.680765870809 416.02200926418715L591.680765870809 289.05539378865274L620.8317086214504 289.05539378865274Q629.4528985611471 289.05539378865274 635.7881669259243 290.92767241192024Q642.1452059723674 292.82172171685363 646.3687182155521 296.74044441671583Q650.6140011404028 300.659167116578 652.6386745353316 306.6896459380325Q654.6851186119263 312.72012475948713 654.6851186119263 320.8841303842L654.6851186119263 320.8841303842Q654.6851186119263 328.7215757839243 652.7257572619952 334.4254943803904Q650.7663959120641 340.1511836585223 646.7605904855384 343.43855659007335Q642.7765557406785 346.7477002032903 636.506599420899 347.68383951492405L636.506599420899 347.68383951492405Q644.1916500489621 349.40372336653024 648.8941172887967 353.5619235647173Q653.5965845286313 357.7201237629044 655.860735421885 364.20778689934286Q658.1248863151386 370.7172207174473 658.1248863151386 379.8173656537939L658.1248863151386 379.8173656537939Q658.1248863151386 387.9596005968408 656.2526076918712 394.7085119132701Q654.3803290686037 401.43565254803354 650.374523642078 406.1381197878681Q646.3687182155521 410.8405870277027 640.1858446224362 413.43129814594494Q634.0029710293204 416.02200926418715 625.5341758612849 416.02200926418715L625.5341758612849 416.02200926418715ZM609.3803300651864 355.5212849146484L609.3803300651864 403.3297018529669L621.2888929364342 403.3297018529669Q633.219226489348 403.3297018529669 637.2032612342078 397.75640734649625Q641.2090666607337 392.2048835216915 641.2090666607337 379.8173656537939L641.2090666607337 379.8173656537939Q641.2090666607337 371.8275254824082 639.0973105391413 366.40662574759887Q636.963783735883 361.0074966944554 632.3483992227119 358.2643908045519Q627.733014709541 355.5212849146484 619.8955693098166 355.5212849146484L619.8955693098166 355.5212849146484L609.3803300651864 355.5212849146484ZM609.3803300651864 302.22665619652287L609.3803300651864 342.0452329634557L619.8955693098166 342.0452329634557Q627.4064544845523 342.0452329634557 631.651737409403 339.9117061601974Q635.8752496525879 337.799950038605 637.5951335041941 333.0974827987704Q639.3150173558003 328.3950155589358 639.3150173558003 320.8841303842L639.3150173558003 320.8841303842Q639.3150173558003 312.08877499117597 636.6589941925604 308.1700522913138Q634.0029710293204 304.2513295914516 628.3425937961862 303.2498782348202Q622.7039872447178 302.22665619652287 613.6256129900371 302.22665619652287L613.6256129900371 302.22665619652287L609.3803300651864 302.22665619652287ZM669.5762648714026 438.90299569504907L669.5762648714026 438.90299569504907Q667.5298207948078 438.90299569504907 665.1132751298928 438.66351819672417Q662.6749587833119 438.44581138006515 660.9550749317058 437.81446161175404L660.9550749317058 437.81446161175404L660.9550749317058 425.731733287179Q661.7388194716782 425.9058987405062 663.1539137799618 426.0582935121675Q664.5690080882454 426.2106882838288 665.3527526282178 426.2106882838288L665.3527526282178 426.2106882838288Q668.9449151030915 426.2106882838288 670.9913591796861 424.7955939755452Q673.0160325746149 423.3804996672617 673.886859841251 420.8768712756831Q674.757687107887 418.37324288410446 674.757687107887 415.23826472421473L674.757687107887 415.23826472421473L674.757687107887 325.41243217070735L691.5211119906307 325.41243217070735L691.5211119906307 416.9581485758209Q691.5211119906307 427.6257825921124 685.6430279408376 433.26438914358073Q679.7649438910443 438.90299569504907 669.5762648714026 438.90299569504907ZM691.673506762292 311.93638021951466L674.757687107887 311.93638021951466L674.757687107887 294.3892107967985L691.673506762292 294.3892107967985L691.673506762292 311.93638021951466ZM733.3643621524924 417.2847088008094L733.3643621524924 417.2847088008094Q723.3498485861779 417.2847088008094 717.5370765813824 413.19182064762003Q711.7460752582527 409.1207031760965 709.3077589116718 401.60981800136074Q706.8912132467568 394.077162144959 706.8912132467568 383.88848312531735L706.8912132467568 383.88848312531735L706.8912132467568 357.5459583095772Q706.8912132467568 347.35727928993555 709.3077589116718 339.8463941151997Q711.7460752582527 332.31373825879797 717.5370765813824 328.2426207872745Q723.3498485861779 324.171503315751 733.3643621524924 324.171503315751L733.3643621524924 324.171503315751Q743.4006464004727 324.171503315751 749.1263356786047 328.2426207872745Q754.8520249567366 332.31373825879797 757.2685706216516 339.8463941151997Q759.7068869682325 347.35727928993555 759.7068869682325 357.5459583095772L759.7068869682325 357.5459583095772L759.7068869682325 383.88848312531735Q759.7068869682325 394.077162144959 757.2685706216516 401.60981800136074Q754.8520249567366 409.1207031760965 749.1263356786047 413.19182064762003Q743.4006464004727 417.2847088008094 733.3643621524924 417.2847088008094ZM733.3643621524924 404.89719093291177L733.3643621524924 404.89719093291177Q738.2409948456542 404.89719093291177 740.2003561955853 402.06700231634466Q742.1597175455164 399.2585843814434 742.5515898155026 394.6214291866065Q742.9434620854888 390.0060446734355 742.9434620854888 384.9770172086124L742.9434620854888 384.9770172086124L742.9434620854888 356.6098189979434Q742.9434620854888 351.45016744312494 742.5515898155026 346.9000949749516Q742.1597175455164 342.3500225067783 740.2003561955853 339.4545218452135Q738.2409948456542 336.55902118364867 733.3643621524924 336.55902118364867L733.3643621524924 336.55902118364867Q728.5095001409965 336.55902118364867 726.4848267460677 339.4545218452135Q724.438382669473 342.3500225067783 724.0465103994868 346.9000949749516Q723.6546381295005 351.45016744312494 723.6546381295005 356.6098189979434L723.6546381295005 356.6098189979434L723.6546381295005 384.9770172086124Q723.6546381295005 390.0060446734355 724.0465103994868 394.6214291866065Q724.438382669473 399.2585843814434 726.4848267460677 402.06700231634466Q728.5095001409965 404.89719093291177 733.3643621524924 404.89719093291177ZM755.3092092717205 306.4501684397076L738.3933896173155 306.4501684397076L738.3933896173155 289.05539378865274L755.3092092717205 289.05539378865274L755.3092092717205 306.4501684397076ZM728.3571053693352 306.4501684397076L711.4195150332642 306.4501684397076L711.4195150332642 289.05539378865274L728.3571053693352 289.05539378865274L728.3571053693352 306.4501684397076ZM792.3193681037521 416.02200926418715L775.5341725393425 416.02200926418715L775.5341725393425 325.41243217070735L792.3193681037521 325.41243217070735L792.3193681037521 338.27890503525487Q797.3266248869094 329.96250463888066 802.3338816700666 327.15408670397943Q807.3629091348897 324.3238980874123 812.370165918047 324.3238980874123L812.370165918047 324.3238980874123Q813.0015156863581 324.3238980874123 813.5457827280056 324.3238980874123Q814.0900497696532 324.3238980874123 815.0479597629528 324.4762928590736L815.0479597629528 324.4762928590736L815.0479597629528 342.9813722750894Q813.1539104580194 342.197627735117 810.7373647931045 341.6533606934695Q808.2990484465236 341.08732297015604 805.7954200549449 341.08732297015604L805.7954200549449 341.08732297015604Q801.8766973550827 341.08732297015604 798.6546364685294 342.89428954842583Q795.4543462636419 344.7012561266956 792.3193681037521 349.88267836318005L792.3193681037521 349.88267836318005L792.3193681037521 416.02200926418715ZM842.1524584369995 416.02200926418715L825.3890335542558 416.02200926418715L825.3890335542558 325.41243217070735L842.1524584369995 325.41243217070735L842.1524584369995 334.36018233539266Q846.7025309051728 330.11489941054197 852.1887426849798 327.15408670397943Q857.6749544647869 324.171503315751 864.249700327889 324.171503315751L864.249700327889 324.171503315751Q869.735912107696 324.171503315751 872.6531834509267 326.97992125065224Q875.5486841124916 329.81010986721935 876.7243009224503 334.03362211040417Q877.8999177324088 338.27890503525487 877.8999177324088 342.65481205010093L877.8999177324088 342.65481205010093L877.8999177324088 416.02200926418715L861.1147221679992 416.02200926418715L861.1147221679992 347.53144474326274Q861.1147221679992 342.65481205010093 859.7213985413816 339.998788886861Q858.306304233098 337.3427657236211 853.908626536586 337.3427657236211L853.908626536586 337.3427657236211Q851.1002086016847 337.3427657236211 848.0305424867927 338.9755668485637Q844.9826470535666 340.6301386551721 842.1524584369995 342.9813722750894L842.1524584369995 342.9813722750894L842.1524584369995 416.02200926418715ZM949.2206708699005 416.02200926418715L931.499335993857 416.02200926418715L931.499335993857 289.05539378865274L957.0581162696247 289.05539378865274Q969.750423680845 289.05539378865274 978.0668240772193 292.4298494468674Q986.3614537919275 295.80430510508205 990.3672592184532 303.2498782348202Q994.3512939633131 310.6954513645583 994.3512939633131 322.7564090074674L994.3512939633131 322.7564090074674Q994.3512939633131 330.11489941054197 992.7838048833682 336.16714891366246Q991.2163158034234 342.197627735117 987.776548100211 346.3558279333041Q984.3367803969986 350.4922574498253 978.6764031638644 352.38630675475866L978.6764031638644 352.38630675475866L996.7025275832304 416.02200926418715L979.6343131571641 416.02200926418715L963.0015123644157 356.4574242262821L949.2206708699005 356.4574242262821L949.2206708699005 416.02200926418715ZM949.2206708699005 301.747701199873L949.2206708699005 343.7651168150619L955.9478115046638 343.7651168150619Q963.4804673610656 343.7651168150619 968.1829346009001 341.8710675101285Q972.8854018407347 339.998788886861 975.0842406889908 335.4487164186877Q977.2830795372467 330.8986439505144 977.2830795372467 322.7564090074674L977.2830795372467 322.7564090074674Q977.2830795372467 311.63159067619205 973.1901913840574 306.6896459380325Q969.1190739125338 301.747701199873 957.0581162696247 301.747701199873L957.0581162696247 301.747701199873L949.2206708699005 301.747701199873ZM1029.31500871875 416.02200926418715L1012.5515838360063 416.02200926418715L1012.5515838360063 325.41243217070735L1029.31500871875 325.41243217070735L1029.31500871875 416.02200926418715ZM1029.31500871875 311.93638021951466L1012.5515838360063 311.93638021951466L1012.5515838360063 294.3892107967985L1029.31500871875 294.3892107967985L1029.31500871875 311.93638021951466ZM1072.1161688739114 417.2847088008094L1072.1161688739114 417.2847088008094Q1060.96957986097 417.2847088008094 1055.265661264504 412.7999483776338Q1049.5399719863722 408.3369586361241 1047.580610636441 400.1947236930772Q1045.6212492865097 392.0307180683643 1045.6212492865097 381.2324599620774L1045.6212492865097 381.2324599620774L1045.6212492865097 360.3761469261443Q1045.6212492865097 348.9247683698804 1047.6459226814386 340.869616153497Q1049.6923667580331 332.79269325544783 1055.4180560361654 328.4820982855994Q1061.1437453142973 324.171503315751 1072.1161688739114 324.171503315751L1072.1161688739114 324.171503315751Q1081.9782876685645 324.171503315751 1087.3991874033738 327.37179352063845Q1092.7983164565171 330.59385440719177 1094.8447605331119 336.9508934536349Q1096.8694339280407 343.28616181841204 1096.8694339280407 352.6910962980813L1096.8694339280407 352.6910962980813L1096.8694339280407 358.024913306227L1081.6734981252418 358.024913306227L1081.6734981252418 352.53870152641997Q1081.6734981252418 346.5735347499631 1080.8897535852693 343.13376704675073Q1080.106009045297 339.6939993435384 1078.0595649687023 338.12651026359356Q1076.0348915737736 336.55902118364867 1072.2685636455726 336.55902118364867L1072.2685636455726 336.55902118364867Q1068.1974461740492 336.55902118364867 1065.9986073257933 338.4312998069162Q1063.799768477537 340.3035784301836 1063.1031066642283 344.7883388533592Q1062.3846741692537 349.25132859486894 1062.3846741692537 356.936379222932L1062.3846741692537 356.936379222932L1062.3846741692537 385.45597220526224Q1062.3846741692537 397.0597455331874 1064.5835130175096 400.9784682330496Q1066.7823518657656 404.89719093291177 1072.420958417234 404.89719093291177L1072.420958417234 404.89719093291177Q1076.6444706604188 404.89719093291177 1078.6038320103498 402.93782958298067Q1080.5631933602808 400.9784682330496 1081.1292310835943 397.36453507651004Q1081.6734981252418 393.7723726016364 1081.6734981252418 389.2223001334631L1081.6734981252418 389.2223001334631L1081.6734981252418 381.84203904872265L1096.8694339280407 381.84203904872265L1096.8694339280407 388.1119953685021Q1096.8694339280407 397.21214030484873 1094.7576778064483 403.7868861679508Q1092.645921684856 410.3834027127188 1087.2250219500465 413.82317041593114Q1081.8258928969033 417.2847088008094 1072.1161688739114 417.2847088008094ZM1128.8505652952492 415.86961449252584L1112.0871404125055 415.86961449252584L1112.0871404125055 288.90299901699143L1128.8505652952492 288.90299901699143L1128.8505652952492 364.5996591693291L1153.299040806056 325.41243217070735L1170.8679809104378 325.41243217070735L1149.5327128778551 360.8551019227941L1170.236631142127 416.02200926418715L1153.4514355777173 416.02200926418715L1136.5356159233124 369.62868663415225L1128.8505652952492 381.2324599620774L1128.8505652952492 415.86961449252584ZM1200.0189236610795 417.2847088008094L1200.0189236610795 417.2847088008094Q1188.894105329804 417.2847088008094 1182.1451940133747 410.2963199860552Q1175.3962826969455 403.3297018529669 1174.4601433853118 391.878323296703L1174.4601433853118 391.878323296703L1188.4151503331543 387.6548110535182Q1189.6778498697765 396.276000993215 1192.638662576339 400.58659596306336Q1195.6212459645674 404.89719093291177 1201.4340179693631 404.89719093291177L1201.4340179693631 404.89719093291177Q1205.9623197558703 404.89719093291177 1208.3135533757877 402.30647981466956Q1210.664786995705 399.71576869642735 1210.664786995705 395.3398616815813L1210.664786995705 395.3398616815813Q1210.664786995705 391.4211389817191 1208.944903144099 388.28616082182936Q1207.2250192924926 385.15118266193963 1203.3062965926306 381.84203904872265L1203.3062965926306 381.84203904872265L1187.7838005648432 368.5183818691913Q1183.0813333250085 364.4472643976678 1179.8810431201211 359.4400076145106Q1176.6589822335677 354.4109801496875 1176.6589822335677 346.42113997830177L1176.6589822335677 346.42113997830177Q1176.6589822335677 339.2150443468886 1179.5544828951324 334.27309960872907Q1182.4499835566974 329.33115487056955 1187.7184885198453 326.7622144339932Q1192.9652228013276 324.171503315751 1200.0189236610795 324.171503315751L1200.0189236610795 324.171503315751Q1210.8389524490321 324.171503315751 1216.5428710454983 331.13812144883934Q1222.2685603236303 338.12651026359356 1223.0523048636028 347.98862905824666L1223.0523048636028 347.98862905824666L1211.7750917606659 352.23391198309736Q1211.143741992355 347.53144474326274 1209.8810424557328 344.0045943133868Q1208.6401136007762 340.4777438835108 1206.4412747525203 338.51838253357977Q1204.2424359042643 336.55902118364867 1200.6502734293904 336.55902118364867L1200.6502734293904 336.55902118364867Q1196.5573852762013 336.55902118364867 1194.140839611286 339.3021270735522Q1191.7025232647052 342.0452329634557 1191.7025232647052 345.78979020999066L1191.7025232647052 345.78979020999066Q1191.7025232647052 348.14102382990797 1192.7257453030027 350.42694540482756Q1193.7489673413 352.6910962980813 1196.2525957328785 354.8899351463373L1196.2525957328785 354.8899351463373L1212.2322760756497 369.62868663415225Q1215.5414196888669 372.61127002238067 1218.4369203504316 376.051037725593Q1221.3324210119963 379.49080542880534 1223.204699635264 383.88848312531735Q1225.0987489401973 388.28616082182936 1225.0987489401973 394.077162144959L1225.0987489401973 394.077162144959Q1225.0987489401973 401.76221277302204 1221.9637707803076 406.9218643278406Q1218.828792620418 412.103286564325 1213.1901860689495 414.6939976825672Q1207.5298088358154 417.2847088008094 1200.0189236610795 417.2847088008094Z " fill="#3c1a5b" transform="matrix(0.7142281714886949,0,0,0.7142281714886949,0,40.09023277564967)"/></g></svg>